<?xml version="1.0" encoding="us-ascii" standalone="no"?><svg xmlns="http://www.w3.org/2000/svg" xmlns:xlink="http://www.w3.org/1999/xlink" contentStyleType="text/css" height="1081px" preserveAspectRatio="none" style="width:426px;height:1081px;background:#FFFFFF;" version="1.1" viewBox="0 0 426 1081" width="426px" zoomAndPan="magnify"><defs/><g><text fill="#000000" font-family="Verdana" font-size="22" font-weight="bold" lengthAdjust="spacing" textLength="352" x="35.5" y="37.1182">&#22823;&#27169;&#22411;&#19982;&#20154;&#22312;&#38656;&#27714;&#24037;&#31243;&#20013;&#30340;&#21327;&#20316;&#27169;&#24335;</text><line style="stroke:#000000;stroke-width:1.0;" x1="48" x2="48" y1="130.752" y2="999.7314"/><line style="stroke:#000000;stroke-width:1.0;" x1="176" x2="176" y1="130.752" y2="999.7314"/><line style="stroke:#000000;stroke-width:1.0;" x1="283" x2="283" y1="130.752" y2="999.7314"/><line style="stroke:#000000;stroke-width:1.0;" x1="376" x2="376" y1="130.752" y2="999.7314"/><text fill="#000000" font-family="Verdana" font-size="14" lengthAdjust="spacing" textLength="70" x="10" y="127.8125">&#38656;&#27714;&#20998;&#26512;&#24072;</text><ellipse cx="48" cy="61.7373" fill="#FFFFFF" rx="8" ry="8" style="stroke:#000000;stroke-width:1.0;"/><path d="M48,69.7373 L48,96.7373 M35,77.7373 L61,77.7373 M48,96.7373 L35,111.7373 M48,96.7373 L61,111.7373 " fill="none" style="stroke:#000000;stroke-width:1.0;"/><text fill="#000000" font-family="Verdana" font-size="14" lengthAdjust="spacing" textLength="70" x="10" y="1012.8066">&#38656;&#27714;&#20998;&#26512;&#24072;</text><ellipse cx="48" cy="1024.7461" fill="#FFFFFF" rx="8" ry="8" style="stroke:#000000;stroke-width:1.0;"/><path d="M48,1032.7461 L48,1059.7461 M35,1040.7461 L61,1040.7461 M48,1059.7461 L35,1074.7461 M48,1059.7461 L61,1074.7461 " fill="none" style="stroke:#000000;stroke-width:1.0;"/><rect fill="#FFFFFF" height="31.0146" rx="2.5" ry="2.5" style="stroke:#000000;stroke-width:1.0;" width="84" x="134" y="98.7373"/><text fill="#000000" font-family="Verdana" font-size="14" lengthAdjust="spacing" textLength="70" x="141" y="119.8125">&#22823;&#27169;&#22411;&#21161;&#25163;</text><rect fill="#FFFFFF" height="31.0146" rx="2.5" ry="2.5" style="stroke:#000000;stroke-width:1.0;" width="84" x="134" y="998.7314"/><text fill="#000000" font-family="Verdana" font-size="14" lengthAdjust="spacing" textLength="70" x="141" y="1019.8066">&#22823;&#27169;&#22411;&#21161;&#25163;</text><rect fill="#FFFFFF" height="31.0146" rx="2.5" ry="2.5" style="stroke:#000000;stroke-width:1.0;" width="70" x="248" y="98.7373"/><text fill="#000000" font-family="Verdana" font-size="14" lengthAdjust="spacing" textLength="56" x="255" y="119.8125">&#19994;&#21153;&#29992;&#25143;</text><rect fill="#FFFFFF" height="31.0146" rx="2.5" ry="2.5" style="stroke:#000000;stroke-width:1.0;" width="70" x="248" y="998.7314"/><text fill="#000000" font-family="Verdana" font-size="14" lengthAdjust="spacing" textLength="56" x="255" y="1019.8066">&#19994;&#21153;&#29992;&#25143;</text><text fill="#000000" font-family="Verdana" font-size="14" lengthAdjust="spacing" textLength="70" x="338" y="127.8125">&#38656;&#27714;&#30693;&#35782;&#24211;</text><path d="M358,77.7373 C358,67.7373 376,67.7373 376,67.7373 C376,67.7373 394,67.7373 394,77.7373 L394,103.7373 C394,113.7373 376,113.7373 376,113.7373 C376,113.7373 358,113.7373 358,103.7373 L358,77.7373 " fill="#FFFFFF" style="stroke:#000000;stroke-width:1.5;"/><path d="M358,77.7373 C358,87.7373 376,87.7373 376,87.7373 C376,87.7373 394,87.7373 394,77.7373 " fill="none" style="stroke:#000000;stroke-width:1.5;"/><text fill="#000000" font-family="Verdana" font-size="14" lengthAdjust="spacing" textLength="70" x="338" y="1012.8066">&#38656;&#27714;&#30693;&#35782;&#24211;</text><path d="M358,1025.7461 C358,1015.7461 376,1015.7461 376,1015.7461 C376,1015.7461 394,1015.7461 394,1025.7461 L394,1051.7461 C394,1061.7461 376,1061.7461 376,1061.7461 C376,1061.7461 358,1061.7461 358,1051.7461 L358,1025.7461 " fill="#FFFFFF" style="stroke:#000000;stroke-width:1.5;"/><path d="M358,1025.7461 C358,1035.7461 376,1035.7461 376,1035.7461 C376,1035.7461 394,1035.7461 394,1025.7461 " fill="none" style="stroke:#000000;stroke-width:1.5;"/><rect fill="#FFFFFF" height="3" style="stroke:#FFFFFF;stroke-width:1.0;" width="414" x="5" y="161.6516"/><line style="stroke:#000000;stroke-width:0.5;" x1="5" x2="419" y1="161.6516" y2="161.6516"/><line style="stroke:#000000;stroke-width:0.5;" x1="5" x2="419" y1="164.6516" y2="164.6516"/><rect fill="#FFFFFF" height="23.7993" style="stroke:#000000;stroke-width:1.0;" width="96" x="164" y="150.752"/><text fill="#000000" font-family="Verdana" font-size="13" font-weight="bold" lengthAdjust="spacing" textLength="78" x="170" y="167.8218">&#38656;&#27714;&#25910;&#38598;&#38454;&#27573;</text><polygon fill="#000000" points="59,202.3506,49,206.3506,59,210.3506,55,206.3506" style="stroke:#000000;stroke-width:1.0;"/><line style="stroke:#000000;stroke-width:1.0;" x1="53" x2="282" y1="206.3506" y2="206.3506"/><text fill="#000000" font-family="Verdana" font-size="13" lengthAdjust="spacing" textLength="78" x="65" y="201.6211">&#25552;&#20986;&#19994;&#21153;&#38656;&#27714;</text><polygon fill="#000000" points="164,232.1499,174,236.1499,164,240.1499,168,236.1499" style="stroke:#000000;stroke-width:1.0;"/><line style="stroke:#000000;stroke-width:1.0;" x1="48" x2="170" y1="236.1499" y2="236.1499"/><text fill="#000000" font-family="Verdana" font-size="13" lengthAdjust="spacing" textLength="104" x="55" y="231.4204">&#29983;&#25104;&#35843;&#30740;&#38382;&#21367;&#27169;&#26495;</text><polygon fill="#000000" points="59,261.9492,49,265.9492,59,269.9492,55,265.9492" style="stroke:#000000;stroke-width:1.0;"/><line style="stroke:#000000;stroke-width:1.0;" x1="53" x2="175" y1="265.9492" y2="265.9492"/><text fill="#000000" font-family="Verdana" font-size="13" lengthAdjust="spacing" textLength="91" x="65" y="261.2197">&#36820;&#22238;&#26631;&#20934;&#21270;&#38382;&#21367;</text><polygon fill="#000000" points="271,291.7485,281,295.7485,271,299.7485,275,295.7485" style="stroke:#000000;stroke-width:1.0;"/><line style="stroke:#000000;stroke-width:1.0;" x1="48" x2="277" y1="295.7485" y2="295.7485"/><text fill="#000000" font-family="Verdana" font-size="13" lengthAdjust="spacing" textLength="78" x="55" y="291.019">&#24320;&#23637;&#28145;&#24230;&#35775;&#35848;</text><polygon fill="#000000" points="59,321.5479,49,325.5479,59,329.5479,55,325.5479" style="stroke:#000000;stroke-width:1.0;"/><line style="stroke:#000000;stroke-width:1.0;" x1="53" x2="282" y1="325.5479" y2="325.5479"/><text fill="#000000" font-family="Verdana" font-size="13" lengthAdjust="spacing" textLength="78" x="65" y="320.8184">&#25552;&#20379;&#35814;&#32454;&#20449;&#24687;</text><rect fill="#FFFFFF" height="3" style="stroke:#FFFFFF;stroke-width:1.0;" width="414" x="5" y="354.4475"/><line style="stroke:#000000;stroke-width:0.5;" x1="5" x2="419" y1="354.4475" y2="354.4475"/><line style="stroke:#000000;stroke-width:0.5;" x1="5" x2="419" y1="357.4475" y2="357.4475"/><rect fill="#FFFFFF" height="23.7993" style="stroke:#000000;stroke-width:1.0;" width="96" x="164" y="343.5479"/><text fill="#000000" font-family="Verdana" font-size="13" font-weight="bold" lengthAdjust="spacing" textLength="78" x="170" y="360.6177">&#38656;&#27714;&#20998;&#26512;&#38454;&#27573;</text><polygon fill="#000000" points="164,395.1465,174,399.1465,164,403.1465,168,399.1465" style="stroke:#000000;stroke-width:1.0;"/><line style="stroke:#000000;stroke-width:1.0;" x1="48" x2="170" y1="399.1465" y2="399.1465"/><text fill="#000000" font-family="Verdana" font-size="13" lengthAdjust="spacing" textLength="104" x="55" y="394.417">&#36755;&#20837;&#21407;&#22987;&#38656;&#27714;&#20449;&#24687;</text><polygon fill="#000000" points="364,424.9458,374,428.9458,364,432.9458,368,428.9458" style="stroke:#000000;stroke-width:1.0;"/><line style="stroke:#000000;stroke-width:1.0;" x1="176" x2="370" y1="428.9458" y2="428.9458"/><text fill="#000000" font-family="Verdana" font-size="13" lengthAdjust="spacing" textLength="78" x="183" y="424.2163">&#26597;&#35810;&#21382;&#21490;&#32463;&#39564;</text><polygon fill="#000000" points="187,454.7451,177,458.7451,187,462.7451,183,458.7451" style="stroke:#000000;stroke-width:1.0;"/><line style="stroke:#000000;stroke-width:1.0;" x1="181" x2="375" y1="458.7451" y2="458.7451"/><text fill="#000000" font-family="Verdana" font-size="13" lengthAdjust="spacing" textLength="78" x="193" y="454.0156">&#36820;&#22238;&#30456;&#20284;&#26696;&#20363;</text><polygon fill="#000000" points="59,484.5444,49,488.5444,59,492.5444,55,488.5444" style="stroke:#000000;stroke-width:1.0;"/><line style="stroke:#000000;stroke-width:1.0;" x1="53" x2="175" y1="488.5444" y2="488.5444"/><text fill="#000000" font-family="Verdana" font-size="13" lengthAdjust="spacing" textLength="104" x="65" y="483.8149">&#29983;&#25104;&#21021;&#27493;&#20998;&#26512;&#25253;&#21578;</text><line style="stroke:#000000;stroke-width:1.0;" x1="48" x2="90" y1="518.3438" y2="518.3438"/><line style="stroke:#000000;stroke-width:1.0;" x1="90" x2="90" y1="518.3438" y2="531.3438"/><line style="stroke:#000000;stroke-width:1.0;" x1="49" x2="90" y1="531.3438" y2="531.3438"/><polygon fill="#000000" points="59,527.3438,49,531.3438,59,535.3438,55,531.3438" style="stroke:#000000;stroke-width:1.0;"/><text fill="#000000" font-family="Verdana" font-size="13" lengthAdjust="spacing" textLength="91" x="55" y="513.6143">&#20154;&#24037;&#23457;&#26680;&#21644;&#20248;&#21270;</text><polygon fill="#000000" points="164,557.1431,174,561.1431,164,565.1431,168,561.1431" style="stroke:#000000;stroke-width:1.0;"/><line style="stroke:#000000;stroke-width:1.0;" x1="48" x2="170" y1="561.1431" y2="561.1431"/><text fill="#000000" font-family="Verdana" font-size="13" lengthAdjust="spacing" textLength="78" x="55" y="556.4136">&#23436;&#21892;&#38656;&#27714;&#25991;&#26723;</text><polygon fill="#000000" points="59,586.9424,49,590.9424,59,594.9424,55,590.9424" style="stroke:#000000;stroke-width:1.0;"/><line style="stroke:#000000;stroke-width:1.0;" x1="53" x2="175" y1="590.9424" y2="590.9424"/><text fill="#000000" font-family="Verdana" font-size="13" lengthAdjust="spacing" textLength="91" x="65" y="586.2129">&#26631;&#20934;&#21270;&#25991;&#26723;&#26684;&#24335;</text><rect fill="#FFFFFF" height="3" style="stroke:#FFFFFF;stroke-width:1.0;" width="414" x="5" y="619.842"/><line style="stroke:#000000;stroke-width:0.5;" x1="5" x2="419" y1="619.842" y2="619.842"/><line style="stroke:#000000;stroke-width:0.5;" x1="5" x2="419" y1="622.842" y2="622.842"/><rect fill="#FFFFFF" height="23.7993" style="stroke:#000000;stroke-width:1.0;" width="96" x="164" y="608.9424"/><text fill="#000000" font-family="Verdana" font-size="13" font-weight="bold" lengthAdjust="spacing" textLength="78" x="170" y="626.0122">&#38656;&#27714;&#39564;&#35777;&#38454;&#27573;</text><polygon fill="#000000" points="164,660.541,174,664.541,164,668.541,168,664.541" style="stroke:#000000;stroke-width:1.0;"/><line style="stroke:#000000;stroke-width:1.0;" x1="48" x2="170" y1="664.541" y2="664.541"/><text fill="#000000" font-family="Verdana" font-size="13" lengthAdjust="spacing" textLength="91" x="55" y="659.8115">&#38656;&#27714;&#19968;&#33268;&#24615;&#26816;&#26597;</text><polygon fill="#000000" points="59,690.3403,49,694.3403,59,698.3403,55,694.3403" style="stroke:#000000;stroke-width:1.0;"/><line style="stroke:#000000;stroke-width:1.0;" x1="53" x2="175" y1="694.3403" y2="694.3403"/><text fill="#000000" font-family="Verdana" font-size="13" lengthAdjust="spacing" textLength="78" x="65" y="689.6108">&#36820;&#22238;&#26816;&#26597;&#32467;&#26524;</text><polygon fill="#000000" points="271,720.1396,281,724.1396,271,728.1396,275,724.1396" style="stroke:#000000;stroke-width:1.0;"/><line style="stroke:#000000;stroke-width:1.0;" x1="48" x2="277" y1="724.1396" y2="724.1396"/><text fill="#000000" font-family="Verdana" font-size="13" lengthAdjust="spacing" textLength="52" x="55" y="719.4102">&#38656;&#27714;&#30830;&#35748;</text><polygon fill="#000000" points="59,749.939,49,753.939,59,757.939,55,753.939" style="stroke:#000000;stroke-width:1.0;"/><line style="stroke:#000000;stroke-width:1.0;" x1="53" x2="282" y1="753.939" y2="753.939"/><text fill="#000000" font-family="Verdana" font-size="13" lengthAdjust="spacing" textLength="78" x="65" y="749.2095">&#21453;&#39304;&#20462;&#25913;&#24847;&#35265;</text><polygon fill="#000000" points="164,779.7383,174,783.7383,164,787.7383,168,783.7383" style="stroke:#000000;stroke-width:1.0;"/><line style="stroke:#000000;stroke-width:1.0;" x1="48" x2="170" y1="783.7383" y2="783.7383"/><text fill="#000000" font-family="Verdana" font-size="13" lengthAdjust="spacing" textLength="78" x="55" y="779.0088">&#26356;&#26032;&#38656;&#27714;&#25991;&#26723;</text><path d="M53,796.7383 L53,884.7383 L138,884.7383 L138,806.7383 L128,796.7383 L53,796.7383 " fill="#FFFFFF" style="stroke:#000000;stroke-width:1.0;"/><path d="M128,796.7383 L128,806.7383 L138,806.7383 L128,796.7383 " fill="#FFFFFF" style="stroke:#000000;stroke-width:1.0;"/><text fill="#000000" font-family="Verdana" font-size="13" lengthAdjust="spacing" textLength="52" x="59" y="814.8081">&#20154;&#36127;&#36131;&#65306;</text><text fill="#000000" font-family="Verdana" font-size="13" lengthAdjust="spacing" textLength="64" x="59" y="830.6074">- &#19994;&#21153;&#21028;&#26029;</text><text fill="#000000" font-family="Verdana" font-size="13" lengthAdjust="spacing" textLength="64" x="59" y="846.4067">- &#21019;&#26032;&#24605;&#32771;</text><text fill="#000000" font-family="Verdana" font-size="13" lengthAdjust="spacing" textLength="64" x="59" y="862.2061">- &#22797;&#26434;&#27807;&#36890;</text><text fill="#000000" font-family="Verdana" font-size="13" lengthAdjust="spacing" textLength="64" x="59" y="878.0054">- &#26368;&#32456;&#20915;&#31574;</text><path d="M73,895.7349 L73,983.7349 L171,983.7349 L171,905.7349 L161,895.7349 L73,895.7349 " fill="#FFFFFF" style="stroke:#000000;stroke-width:1.0;"/><path d="M161,895.7349 L161,905.7349 L171,905.7349 L161,895.7349 " fill="#FFFFFF" style="stroke:#000000;stroke-width:1.0;"/><text fill="#000000" font-family="Verdana" font-size="13" lengthAdjust="spacing" textLength="53" x="79" y="913.8047">AI&#36127;&#36131;&#65306;</text><text fill="#000000" font-family="Verdana" font-size="13" lengthAdjust="spacing" textLength="77" x="79" y="929.604">- &#25991;&#26723;&#26631;&#20934;&#21270;</text><text fill="#000000" font-family="Verdana" font-size="13" lengthAdjust="spacing" textLength="64" x="79" y="945.4033">- &#25968;&#25454;&#20998;&#26512;</text><text fill="#000000" font-family="Verdana" font-size="13" lengthAdjust="spacing" textLength="77" x="79" y="961.2026">- &#19968;&#33268;&#24615;&#26816;&#26597;</text><text fill="#000000" font-family="Verdana" font-size="13" lengthAdjust="spacing" textLength="64" x="79" y="977.002">- &#27169;&#26495;&#29983;&#25104;</text><!--SRC=[TLDBSjf04DtFAIRiVG5NaIfxHtcT0oYs75D5i0kqoKxOZb3uYSIOkCnNuPjK8S0XXe1YBgDkZLQvGYIDm0R7o-b-tU_rwvvNqeduNgHdCI4Q9qIAIZ6HGhk7VHtgMMjMiEPpgFQTgepZSvXsxBuR7DYtbv3Nh3zL3sPgX0Y7qcc2XWAOgc2z23CrH8KatOiBiGz9YPm92Ibw63qJuX8DhHaWynq_PJamiecnPhUGqUrI7zMf3tYJ51FaI924jq9IN97PZGuRAZ2_yY47-uI4mvIdi7JlL1JdvXwDNpGS9buztNczKhHBKIj2UivvU0a9SZuiialjKWFL8XjTsCsIyzM0_DILZRKbsOjiT6BB4bJgs4n3Me5ScKEVDlEuTocOCeolSJg6UPSPIpPI_olAUgYmOTTUADPInzJmoKZSsiUHjkIoXolus8520tfPNX1qu78Fzjtsdb_VeA20TcSlDET7ZXpih-lzCUpAp39Dr5Nh8RizA3S4r1eEEbmCPZhmEREXP0NsRcVQ0KF7vWo-v2ppnlLcMpCOEIXV1Xihfr5lRNEkRULfR9h-pQrDSMTWmzIBfWH6p6IMdg3SmvRiUl320lsSlRZ2UlNvzeA3qmrcj9_l3RIyqrMjfO6bttYfiLvgMmXM9bWURKnAugUII1FHToSIFJrU_nNgMSSc3JPf_JLltUSEvLSAQXlB0py0QiNjXdADoHSyqCvZxHpl6exCIx0gsmiLb9_se4p4-17ro0BAc7ZC6ICkT2-ooRNoER2Tnwv7c3VuoWD1cuRw8Fzpy1jvPFm7]--></g></svg>