<?xml version="1.0" encoding="us-ascii" standalone="no"?><svg xmlns="http://www.w3.org/2000/svg" xmlns:xlink="http://www.w3.org/1999/xlink" contentStyleType="text/css" height="1242px" preserveAspectRatio="none" style="width:1049px;height:1242px;background:#FFFFFF;" version="1.1" viewBox="0 0 1049 1242" width="1049px" zoomAndPan="magnify"><defs/><g><text fill="#000000" font-family="sans-serif" font-size="14" font-weight="bold" lengthAdjust="spacing" textLength="120.0625" x="463.2188" y="36.0439">CA&#30331;&#24405;&#27969;&#31243;&#27963;&#21160;&#22270;</text><rect fill="none" height="24.583" style="stroke:none;stroke-width:1.0;" width="1016.5" x="15" y="52.5752"/><ellipse cx="67" cy="92.1582" fill="#222222" rx="10" ry="10" style="stroke:#222222;stroke-width:1.0;"/><rect fill="#F1F1F1" height="36.3887" rx="12.5" ry="12.5" style="stroke:#181818;stroke-width:0.5;" width="92" x="21" y="122.1582"/><text fill="#000000" font-family="sans-serif" font-size="12" lengthAdjust="spacing" textLength="72" x="31" y="145.9102">&#36873;&#25321;"CA&#30331;&#24405;"</text><rect fill="#F1F1F1" height="36.3887" rx="12.5" ry="12.5" style="stroke:#181818;stroke-width:0.5;" width="73" x="30.5" y="178.5469"/><text fill="#000000" font-family="sans-serif" font-size="12" lengthAdjust="spacing" textLength="53" x="40.5" y="202.2988">&#25554;&#20837;UKey</text><rect fill="#F1F1F1" height="36.3887" rx="12.5" ry="12.5" style="stroke:#181818;stroke-width:0.5;" width="68" x="33" y="234.9355"/><text fill="#000000" font-family="sans-serif" font-size="12" lengthAdjust="spacing" textLength="48" x="43" y="258.6875">&#36755;&#20837;&#21475;&#20196;</text><line style="stroke:#000000;stroke-width:1.5;" x1="15" x2="15" y1="52.5752" y2="1230.7656"/><rect fill="#F1F1F1" height="36.3887" rx="12.5" ry="12.5" style="stroke:#181818;stroke-width:0.5;" width="145" x="123" y="291.3242"/><text fill="#000000" font-family="sans-serif" font-size="12" lengthAdjust="spacing" textLength="125" x="133" y="315.0762">&#35835;&#21462;UKey&#20013;&#30340;&#35777;&#20070;&#20449;&#24687;</text><rect fill="#F1F1F1" height="36.3887" rx="12.5" ry="12.5" style="stroke:#181818;stroke-width:0.5;" width="92" x="149.5" y="347.7129"/><text fill="#000000" font-family="sans-serif" font-size="12" lengthAdjust="spacing" textLength="72" x="159.5" y="371.4648">&#35835;&#21462;&#31614;&#21517;&#25968;&#25454;</text><rect fill="#F1F1F1" height="36.3887" rx="12.5" ry="12.5" style="stroke:#181818;stroke-width:0.5;" width="129" x="131" y="404.1016"/><text fill="#000000" font-family="sans-serif" font-size="12" lengthAdjust="spacing" textLength="109" x="141" y="427.8535">&#25552;&#20132;&#33267;UUV&#35748;&#35777;&#25509;&#21475;</text><line style="stroke:#000000;stroke-width:1.5;" x1="117" x2="117" y1="52.5752" y2="1230.7656"/><rect fill="#F1F1F1" height="36.3887" rx="12.5" ry="12.5" style="stroke:#181818;stroke-width:0.5;" width="92" x="430" y="460.4902"/><text fill="#000000" font-family="sans-serif" font-size="12" lengthAdjust="spacing" textLength="72" x="440" y="484.2422">&#25509;&#25910;&#35748;&#35777;&#35831;&#27714;</text><rect fill="#F1F1F1" height="36.3887" rx="12.5" ry="12.5" style="stroke:#181818;stroke-width:0.5;" width="68" x="442" y="516.8789"/><text fill="#000000" font-family="sans-serif" font-size="12" lengthAdjust="spacing" textLength="48" x="452" y="540.6309">&#26657;&#39564;&#31614;&#21517;</text><rect fill="#F1F1F1" height="36.3887" rx="12.5" ry="12.5" style="stroke:#181818;stroke-width:0.5;" width="156" x="398" y="573.2676"/><text fill="#000000" font-family="sans-serif" font-size="12" lengthAdjust="spacing" textLength="136" x="408" y="597.0195">&#36716;&#21457;&#33267;CA&#26381;&#21153;&#22120;&#36827;&#34892;&#39564;&#35777;</text><rect fill="#F1F1F1" height="36.3887" rx="12.5" ry="12.5" style="stroke:#181818;stroke-width:0.5;" width="144" x="404" y="798.8223"/><text fill="#000000" font-family="sans-serif" font-size="12" lengthAdjust="spacing" textLength="124" x="414" y="822.5742">&#25509;&#25910;CA&#26381;&#21153;&#22120;&#35748;&#35777;&#32467;&#26524;</text><polygon fill="#F1F1F1" points="451,855.2109,501,855.2109,513,867.2109,501,879.2109,451,879.2109,439,867.2109,451,855.2109" style="stroke:#181818;stroke-width:0.5;"/><text fill="#000000" font-family="sans-serif" font-size="11" lengthAdjust="spacing" textLength="50" x="451" y="872.3054">&#35748;&#35777;&#25104;&#21151;?</text><text fill="#000000" font-family="sans-serif" font-size="11" lengthAdjust="spacing" textLength="11" x="428" y="864.7939">&#26159;</text><text fill="#000000" font-family="sans-serif" font-size="11" lengthAdjust="spacing" textLength="11" x="513" y="864.7939">&#21542;</text><rect fill="#F1F1F1" height="36.3887" rx="12.5" ry="12.5" style="stroke:#181818;stroke-width:0.5;" width="188" x="278" y="889.2109"/><text fill="#000000" font-family="sans-serif" font-size="12" lengthAdjust="spacing" textLength="168" x="288" y="912.9629">&#23558;&#35748;&#35777;&#25104;&#21151;&#32467;&#26524;&#21453;&#39304;&#33267;&#19994;&#21153;&#31995;&#32479;</text><rect fill="#F1F1F1" height="36.3887" rx="12.5" ry="12.5" style="stroke:#181818;stroke-width:0.5;" width="188" x="486" y="889.2109"/><text fill="#000000" font-family="sans-serif" font-size="12" lengthAdjust="spacing" textLength="168" x="496" y="912.9629">&#23558;&#35748;&#35777;&#22833;&#36133;&#32467;&#26524;&#21453;&#39304;&#33267;&#19994;&#21153;&#31995;&#32479;</text><polygon fill="#F1F1F1" points="476,931.5996,488,943.5996,476,955.5996,464,943.5996,476,931.5996" style="stroke:#181818;stroke-width:0.5;"/><line style="stroke:#000000;stroke-width:1.5;" x1="272" x2="272" y1="52.5752" y2="1230.7656"/><rect fill="#F1F1F1" height="36.3887" rx="12.5" ry="12.5" style="stroke:#181818;stroke-width:0.5;" width="92" x="690" y="629.6563"/><text fill="#000000" font-family="sans-serif" font-size="12" lengthAdjust="spacing" textLength="72" x="700" y="653.4082">&#25509;&#25910;&#39564;&#35777;&#35831;&#27714;</text><rect fill="#F1F1F1" height="36.3887" rx="12.5" ry="12.5" style="stroke:#181818;stroke-width:0.5;" width="104" x="684" y="686.0449"/><text fill="#000000" font-family="sans-serif" font-size="12" lengthAdjust="spacing" textLength="84" x="694" y="709.7969">&#39564;&#35777;&#35777;&#20070;&#21644;&#31614;&#21517;</text><rect fill="#F1F1F1" height="36.3887" rx="12.5" ry="12.5" style="stroke:#181818;stroke-width:0.5;" width="92" x="690" y="742.4336"/><text fill="#000000" font-family="sans-serif" font-size="12" lengthAdjust="spacing" textLength="72" x="700" y="766.1855">&#29983;&#25104;&#35748;&#35777;&#32467;&#26524;</text><line style="stroke:#000000;stroke-width:1.5;" x1="678" x2="678" y1="52.5752" y2="1230.7656"/><rect fill="#F1F1F1" height="36.3887" rx="12.5" ry="12.5" style="stroke:#181818;stroke-width:0.5;" width="92" x="872" y="975.5996"/><text fill="#000000" font-family="sans-serif" font-size="12" lengthAdjust="spacing" textLength="72" x="882" y="999.3516">&#25509;&#25910;&#35748;&#35777;&#32467;&#26524;</text><polygon fill="#F1F1F1" points="893,1031.9883,943,1031.9883,955,1043.9883,943,1055.9883,893,1055.9883,881,1043.9883,893,1031.9883" style="stroke:#181818;stroke-width:0.5;"/><text fill="#000000" font-family="sans-serif" font-size="11" lengthAdjust="spacing" textLength="50" x="893" y="1049.0828">&#35748;&#35777;&#25104;&#21151;?</text><text fill="#000000" font-family="sans-serif" font-size="11" lengthAdjust="spacing" textLength="11" x="870" y="1041.5713">&#26159;</text><text fill="#000000" font-family="sans-serif" font-size="11" lengthAdjust="spacing" textLength="11" x="955" y="1041.5713">&#21542;</text><rect fill="#F1F1F1" height="36.3887" rx="12.5" ry="12.5" style="stroke:#181818;stroke-width:0.5;" width="68" x="822" y="1065.9883"/><text fill="#000000" font-family="sans-serif" font-size="12" lengthAdjust="spacing" textLength="48" x="832" y="1089.7402">&#23436;&#25104;&#30331;&#24405;</text><rect fill="#F1F1F1" height="36.3887" rx="12.5" ry="12.5" style="stroke:#181818;stroke-width:0.5;" width="116" x="798" y="1122.377"/><text fill="#000000" font-family="sans-serif" font-size="12" lengthAdjust="spacing" textLength="96" x="808" y="1146.1289">&#20801;&#35768;&#29992;&#25143;&#35775;&#38382;&#31995;&#32479;</text><rect fill="#F1F1F1" height="36.3887" rx="12.5" ry="12.5" style="stroke:#181818;stroke-width:0.5;" width="68" x="946" y="1065.9883"/><text fill="#000000" font-family="sans-serif" font-size="12" lengthAdjust="spacing" textLength="48" x="956" y="1089.7402">&#30331;&#24405;&#22833;&#36133;</text><rect fill="#F1F1F1" height="36.3887" rx="12.5" ry="12.5" style="stroke:#181818;stroke-width:0.5;" width="92" x="934" y="1122.377"/><text fill="#000000" font-family="sans-serif" font-size="12" lengthAdjust="spacing" textLength="72" x="944" y="1146.1289">&#26174;&#31034;&#38169;&#35823;&#20449;&#24687;</text><polygon fill="#F1F1F1" points="918,1164.7656,930,1176.7656,918,1188.7656,906,1176.7656,918,1164.7656" style="stroke:#181818;stroke-width:0.5;"/><ellipse cx="918" cy="1219.7656" fill="none" rx="11" ry="11" style="stroke:#222222;stroke-width:1.0;"/><ellipse cx="918" cy="1219.7656" fill="#222222" rx="6" ry="6" style="stroke:#222222;stroke-width:1.0;"/><line style="stroke:#000000;stroke-width:1.5;" x1="792" x2="792" y1="52.5752" y2="1230.7656"/><line style="stroke:#000000;stroke-width:1.5;" x1="1030" x2="1030" y1="52.5752" y2="1230.7656"/><line style="stroke:#181818;stroke-width:1.0;" x1="67" x2="67" y1="102.1582" y2="122.1582"/><polygon fill="#181818" points="63,112.1582,67,122.1582,71,112.1582,67,116.1582" style="stroke:#181818;stroke-width:1.0;"/><line style="stroke:#181818;stroke-width:1.0;" x1="67" x2="67" y1="158.5469" y2="178.5469"/><polygon fill="#181818" points="63,168.5469,67,178.5469,71,168.5469,67,172.5469" style="stroke:#181818;stroke-width:1.0;"/><line style="stroke:#181818;stroke-width:1.0;" x1="67" x2="67" y1="214.9355" y2="234.9355"/><polygon fill="#181818" points="63,224.9355,67,234.9355,71,224.9355,67,228.9355" style="stroke:#181818;stroke-width:1.0;"/><line style="stroke:#181818;stroke-width:1.0;" x1="195.5" x2="195.5" y1="327.7129" y2="347.7129"/><polygon fill="#181818" points="191.5,337.7129,195.5,347.7129,199.5,337.7129,195.5,341.7129" style="stroke:#181818;stroke-width:1.0;"/><line style="stroke:#181818;stroke-width:1.0;" x1="195.5" x2="195.5" y1="384.1016" y2="404.1016"/><polygon fill="#181818" points="191.5,394.1016,195.5,404.1016,199.5,394.1016,195.5,398.1016" style="stroke:#181818;stroke-width:1.0;"/><line style="stroke:#181818;stroke-width:1.0;" x1="476" x2="476" y1="496.8789" y2="516.8789"/><polygon fill="#181818" points="472,506.8789,476,516.8789,480,506.8789,476,510.8789" style="stroke:#181818;stroke-width:1.0;"/><line style="stroke:#181818;stroke-width:1.0;" x1="476" x2="476" y1="553.2676" y2="573.2676"/><polygon fill="#181818" points="472,563.2676,476,573.2676,480,563.2676,476,567.2676" style="stroke:#181818;stroke-width:1.0;"/><line style="stroke:#181818;stroke-width:1.0;" x1="439" x2="372" y1="867.2109" y2="867.2109"/><line style="stroke:#181818;stroke-width:1.0;" x1="372" x2="372" y1="867.2109" y2="889.2109"/><polygon fill="#181818" points="368,879.2109,372,889.2109,376,879.2109,372,883.2109" style="stroke:#181818;stroke-width:1.0;"/><line style="stroke:#181818;stroke-width:1.0;" x1="513" x2="580" y1="867.2109" y2="867.2109"/><line style="stroke:#181818;stroke-width:1.0;" x1="580" x2="580" y1="867.2109" y2="889.2109"/><polygon fill="#181818" points="576,879.2109,580,889.2109,584,879.2109,580,883.2109" style="stroke:#181818;stroke-width:1.0;"/><line style="stroke:#181818;stroke-width:1.0;" x1="372" x2="372" y1="925.5996" y2="943.5996"/><line style="stroke:#181818;stroke-width:1.0;" x1="372" x2="464" y1="943.5996" y2="943.5996"/><polygon fill="#181818" points="454,939.5996,464,943.5996,454,947.5996,458,943.5996" style="stroke:#181818;stroke-width:1.0;"/><line style="stroke:#181818;stroke-width:1.0;" x1="580" x2="580" y1="925.5996" y2="943.5996"/><line style="stroke:#181818;stroke-width:1.0;" x1="580" x2="488" y1="943.5996" y2="943.5996"/><polygon fill="#181818" points="498,939.5996,488,943.5996,498,947.5996,494,943.5996" style="stroke:#181818;stroke-width:1.0;"/><line style="stroke:#181818;stroke-width:1.0;" x1="476" x2="476" y1="835.2109" y2="855.2109"/><polygon fill="#181818" points="472,845.2109,476,855.2109,480,845.2109,476,849.2109" style="stroke:#181818;stroke-width:1.0;"/><line style="stroke:#181818;stroke-width:1.0;" x1="736" x2="736" y1="666.0449" y2="686.0449"/><polygon fill="#181818" points="732,676.0449,736,686.0449,740,676.0449,736,680.0449" style="stroke:#181818;stroke-width:1.0;"/><line style="stroke:#181818;stroke-width:1.0;" x1="736" x2="736" y1="722.4336" y2="742.4336"/><polygon fill="#181818" points="732,732.4336,736,742.4336,740,732.4336,736,736.4336" style="stroke:#181818;stroke-width:1.0;"/><line style="stroke:#181818;stroke-width:1.0;" x1="856" x2="856" y1="1102.377" y2="1122.377"/><polygon fill="#181818" points="852,1112.377,856,1122.377,860,1112.377,856,1116.377" style="stroke:#181818;stroke-width:1.0;"/><line style="stroke:#181818;stroke-width:1.0;" x1="980" x2="980" y1="1102.377" y2="1122.377"/><polygon fill="#181818" points="976,1112.377,980,1122.377,984,1112.377,980,1116.377" style="stroke:#181818;stroke-width:1.0;"/><line style="stroke:#181818;stroke-width:1.0;" x1="881" x2="856" y1="1043.9883" y2="1043.9883"/><line style="stroke:#181818;stroke-width:1.0;" x1="856" x2="856" y1="1043.9883" y2="1065.9883"/><polygon fill="#181818" points="852,1055.9883,856,1065.9883,860,1055.9883,856,1059.9883" style="stroke:#181818;stroke-width:1.0;"/><line style="stroke:#181818;stroke-width:1.0;" x1="955" x2="980" y1="1043.9883" y2="1043.9883"/><line style="stroke:#181818;stroke-width:1.0;" x1="980" x2="980" y1="1043.9883" y2="1065.9883"/><polygon fill="#181818" points="976,1055.9883,980,1065.9883,984,1055.9883,980,1059.9883" style="stroke:#181818;stroke-width:1.0;"/><line style="stroke:#181818;stroke-width:1.0;" x1="856" x2="856" y1="1158.7656" y2="1176.7656"/><line style="stroke:#181818;stroke-width:1.0;" x1="856" x2="906" y1="1176.7656" y2="1176.7656"/><polygon fill="#181818" points="896,1172.7656,906,1176.7656,896,1180.7656,900,1176.7656" style="stroke:#181818;stroke-width:1.0;"/><line style="stroke:#181818;stroke-width:1.0;" x1="980" x2="980" y1="1158.7656" y2="1176.7656"/><line style="stroke:#181818;stroke-width:1.0;" x1="980" x2="930" y1="1176.7656" y2="1176.7656"/><polygon fill="#181818" points="940,1172.7656,930,1176.7656,940,1180.7656,936,1176.7656" style="stroke:#181818;stroke-width:1.0;"/><line style="stroke:#181818;stroke-width:1.0;" x1="918" x2="918" y1="1011.9883" y2="1031.9883"/><polygon fill="#181818" points="914,1021.9883,918,1031.9883,922,1021.9883,918,1025.9883" style="stroke:#181818;stroke-width:1.0;"/><line style="stroke:#181818;stroke-width:1.0;" x1="918" x2="918" y1="1188.7656" y2="1208.7656"/><polygon fill="#181818" points="914,1198.7656,918,1208.7656,922,1198.7656,918,1202.7656" style="stroke:#181818;stroke-width:1.0;"/><line style="stroke:#181818;stroke-width:1.0;" x1="67" x2="67" y1="271.3242" y2="276.3242"/><line style="stroke:#181818;stroke-width:1.0;" x1="67" x2="195.5" y1="276.3242" y2="276.3242"/><line style="stroke:#181818;stroke-width:1.0;" x1="195.5" x2="195.5" y1="276.3242" y2="291.3242"/><polygon fill="#181818" points="191.5,281.3242,195.5,291.3242,199.5,281.3242,195.5,285.3242" style="stroke:#181818;stroke-width:1.0;"/><line style="stroke:#181818;stroke-width:1.0;" x1="195.5" x2="195.5" y1="440.4902" y2="445.4902"/><line style="stroke:#181818;stroke-width:1.0;" x1="195.5" x2="476" y1="445.4902" y2="445.4902"/><line style="stroke:#181818;stroke-width:1.0;" x1="476" x2="476" y1="445.4902" y2="460.4902"/><polygon fill="#181818" points="472,450.4902,476,460.4902,480,450.4902,476,454.4902" style="stroke:#181818;stroke-width:1.0;"/><line style="stroke:#181818;stroke-width:1.0;" x1="476" x2="476" y1="609.6563" y2="614.6563"/><line style="stroke:#181818;stroke-width:1.0;" x1="476" x2="736" y1="614.6563" y2="614.6563"/><line style="stroke:#181818;stroke-width:1.0;" x1="736" x2="736" y1="614.6563" y2="629.6563"/><polygon fill="#181818" points="732,619.6563,736,629.6563,740,619.6563,736,623.6563" style="stroke:#181818;stroke-width:1.0;"/><line style="stroke:#181818;stroke-width:1.0;" x1="736" x2="736" y1="778.8223" y2="783.8223"/><line style="stroke:#181818;stroke-width:1.0;" x1="736" x2="476" y1="783.8223" y2="783.8223"/><line style="stroke:#181818;stroke-width:1.0;" x1="476" x2="476" y1="783.8223" y2="798.8223"/><polygon fill="#181818" points="472,788.8223,476,798.8223,480,788.8223,476,792.8223" style="stroke:#181818;stroke-width:1.0;"/><line style="stroke:#181818;stroke-width:1.0;" x1="476" x2="476" y1="955.5996" y2="960.5996"/><line style="stroke:#181818;stroke-width:1.0;" x1="476" x2="918" y1="960.5996" y2="960.5996"/><line style="stroke:#181818;stroke-width:1.0;" x1="918" x2="918" y1="960.5996" y2="975.5996"/><polygon fill="#181818" points="914,965.5996,918,975.5996,922,965.5996,918,969.5996" style="stroke:#181818;stroke-width:1.0;"/><text fill="#000000" font-family="sans-serif" font-size="18" lengthAdjust="spacing" textLength="36" x="48" y="73.2031">&#29992;&#25143;</text><text fill="#000000" font-family="sans-serif" font-size="18" lengthAdjust="spacing" textLength="54" x="167.5" y="73.2031">&#27983;&#35272;&#22120;</text><text fill="#000000" font-family="sans-serif" font-size="18" lengthAdjust="spacing" textLength="109" x="420.5" y="73.2031">UUV&#20195;&#29702;&#26381;&#21153;</text><text fill="#000000" font-family="sans-serif" font-size="18" lengthAdjust="spacing" textLength="78" x="696" y="73.2031">CA&#26381;&#21153;&#22120;</text><text fill="#000000" font-family="sans-serif" font-size="18" lengthAdjust="spacing" textLength="72" x="875" y="73.2031">&#19994;&#21153;&#31995;&#32479;</text><!--SRC=[ZPBDJi9058NtynIZAtm5kZ2441SQ5qRS6ocHXA2ntPYm42DQ4Mn5_469I2Y8HbiD_g2Dy3ATEzEtSCe8eZ76vRtddc_EdTonc1nFf6Gy5mdFXsQdPY9uARceA0Yf2JKfut28bXtoVWHF6ThQWqU7v5hal8jGcfPQeBsaaQ8khgaew6timjxr-61-N491q8iasuXEo-kyODr3NX2zxZgcnEtmfBChZPHRQQxP3j6F_K6tSqVFjfYTSL-RRgy66LiQoFIkIum27Dr3mUh33VVDP3ljQ7I1MIQtmBwFzzcyvJfrQcn3fK1oDVu2rw3qBEQO_G8FcpxYikRTv0NNV-RzbkW7d1WE2HyFnthdh9RdKzpdaqUa8LMeG-gWz5SWnIyyBLL1CqG4wXp2HUMlgACPlbaISHput5SpIAuwEO7LPJc50t1gJo2CW-H-UrGNFg8NlAR6TtCxPvnAsmvrgXAIaugC0yHeVdSIyu4zDlvsfcA9ECy_sltnp_zFREMv8kv6wZUo6MPrn84ng-UTMBy75XQHjc-4qourtxnIcTdsu7m-aohgoYhw0000]--></g></svg>